<?xml version="1.0" encoding="utf-8"?>
<!-- Generator: Adobe Illustrator 16.0.0, SVG Export Plug-In . SVG Version: 6.00 Build 0)  -->
<!DOCTYPE svg PUBLIC "-//W3C//DTD SVG 1.1//EN" "http://www.w3.org/Graphics/SVG/1.1/DTD/svg11.dtd">
<svg version="1.1" id="Capa_1" xmlns="http://www.w3.org/2000/svg" xmlns:xlink="http://www.w3.org/1999/xlink" x="0px" y="0px"
	 width="595.28px" height="841.89px" viewBox="0 0 595.28 841.89" enable-background="new 0 0 595.28 841.89" xml:space="preserve">
<g>
	<g>
		<path fill-rule="evenodd" clip-rule="evenodd" fill="#FDFDFD" d="M6.015,495.756c0-75.011,0-150.021,0-225.083
			c195.06,0,390.147,0,585.353,0c0,74.992,0,150.037,0,225.083C396.285,495.756,201.163,495.756,6.015,495.756z M275.822,401.599
			c-0.469,2.632-1.189,5.249-1.341,7.899c-0.167,2.902-1.757,4.222-4.15,5.306c-7.773,3.521-15.942,4.553-24.245,3.256
			c-10.349-1.615-16.963-7.819-19.858-17.922c-0.494-1.723-0.992-3.443-1.451-5.034c-4.071,0-7.876,0-11.729,0
			c2.981,12.735,9.557,20.86,20.871,24.936c15.177,5.469,30.324,3.099,46.021-0.593c0-6.144,0-11.972,0-17.799
			c0.397-1.624-0.612-1.831-1.829-1.799C276.934,399.88,275.508,399.611,275.822,401.599z M105.196,364.16
			c0-8.201,0-16.039,0-23.937c-20.947,0-41.695,0-62.435,0c-0.611,12.445,9.244,23.547,21.66,23.859
			C77.907,364.422,91.407,364.16,105.196,364.16z M105.386,369.536c-21.205,0-41.945,0-62.678,0
			c-0.34,13.018,9.784,23.653,22.676,23.849c9.488,0.144,18.98,0.036,28.471,0.039c3.736,0.001,7.473,0.001,11.375,0.001
			c0.07-0.952,0.15-1.535,0.151-2.117C105.389,384.143,105.386,376.979,105.386,369.536z M42.776,401.644
			c-0.067,0.743-0.204,1.327-0.159,1.897c0.913,11.611,10.921,21.149,22.566,21.269c12.417,0.128,24.836,0.045,37.255,0.03
			c0.932-0.001,1.969,0.28,2.694-0.55c0-7.539,0-15.025,0-22.646C84.234,401.644,63.59,401.644,42.776,401.644z M476.733,388.157
			c1.103-19.802-1.852-37.628-23.318-45.183c-13.772-4.847-27.673-3.62-39.693,5.285c-13.557,10.044-13.528,24.96-13.106,39.826
			c4.309,0,8.131,0,12.122,0c-0.354-7.406-0.174-14.571,1.151-21.639c1.368-7.291,4.231-13.755,11.178-17.482
			c17.045-9.148,35.224-0.413,38.579,18.489c1.214,6.834,1.214,13.746,1.087,20.705
			C468.855,388.157,472.709,388.157,476.733,388.157z M365.936,388.167c0-13.738,0-27.2,0-40.921
			c7.908,0.148,15.546-0.263,23.304,1.138c0.548,4.024,1.085,7.969,1.614,11.857c1.396,0.384,2.55,0.447,3.817-0.025
			c0-6.177,0-12.331,0-18.625c-22.952,0-45.75,0-68.627,0c0,6.373,0,12.541,0,18.898c1.328-0.097,2.516,0.332,3.796-0.348
			c0.533-3.883,1.074-7.822,1.623-11.817c7.788-1.408,15.37-1.056,23.209-1.171c0,13.958,0,27.415,0,41.016
			C358.404,388.167,361.884,388.167,365.936,388.167z M538.936,387.64c0.118-0.256-0.322-0.577-0.581-0.959
			c-6.519-9.64-13.068-19.26-19.543-28.929c-3.369-5.029-7.274-9.707-10.057-15.122c-0.621-1.208-1.601-1.26-2.731-1.255
			c-6.935,0.032-13.868,0.031-20.803,0.067c-0.33,0.002-0.658,0.246-0.985,0.376c-0.042,1.125-0.315,2.212,0.313,3.395
			c3.109,0.526,6.308,1.066,9.784,1.655c0,13.881,0,27.568,0,41.419c2.197-0.084,4.091,0.369,5.985-0.36c0-6.215,0-12.298,0-18.38
			c0-6.124,0-12.248,0-18.531c1.498,0.455,1.729,1.502,2.236,2.255c5.677,8.447,11.854,16.622,16.803,25.479
			C523.841,386.777,529.388,390.744,538.936,387.64z M223.903,388.22c-0.298-5.971-0.062-11.653,0.584-17.324
			c1.489-13.079,8.299-21.702,19.352-24.079c8.433-1.813,16.677-0.881,24.75,2.1c3.115,1.15,5.206,2.784,5.21,6.48
			c0.002,1.901,0.677,3.801,1.039,5.657c1.335,0.366,2.482,0.493,3.551,0.026c0-5.094-0.03-10.07,0.019-15.045
			c0.014-1.361-0.596-1.908-1.847-2.217c-4.44-1.093-8.795-2.572-13.42-2.77c-9.872-0.422-19.513-0.979-29.252,2.785
			c-17.008,6.574-24.303,23.733-21.766,44.386C215.867,388.22,219.623,388.22,223.903,388.22z M160.574,350.842
			c0.285,0.016,0.57,0.031,0.854,0.046c3.257,9.272,6.473,18.56,9.78,27.814c3.656,10.23,3.692,10.217,14.659,9.514
			c0.11-0.007,0.216-0.079,0.557-0.211c-5.716-15.69-11.434-31.386-17.167-47.124c-3.74,0-7.369,0-10.968,0
			c-5.521,15.779-11.004,31.443-16.56,47.32c2.17,0,3.978,0,6.029,0C152.024,375.766,156.299,363.304,160.574,350.842z
			 M401.781,395.02c2.418,13.966,10.135,23.064,23.768,26.675c8.736,2.314,17.617,2.242,26.374-0.004
			c13.226-3.392,21.905-13.316,23.544-26.815c-1.955,0-3.889-0.066-5.815,0.019c-1.909,0.084-3.865-0.393-5.7,0.314
			c-3.483,15.744-9.322,22.093-21.275,23.032c-6.384,0.502-12.686,0.21-18.357-3.276c-7.418-4.561-9.433-12.191-10.761-19.944
			C409.389,395.02,405.643,395.02,401.781,395.02z M310.878,388.211c0-14.044,0-27.729,0-41.362c3.48-0.615,6.661-1.178,9.777-1.729
			c0.153-1.41,0.441-2.466-0.202-3.534c-10.298,0-20.57,0-30.86,0c0,1.268,0,2.332,0,3.582c3.278,0.566,6.462,1.117,9.927,1.715
			c0,13.857,0,27.544,0,41.329C303.339,388.211,306.833,388.211,310.878,388.211z M206.741,421.877
			c0.82-2.381-0.008-3.363-2.221-3.519c-1.449-0.102-2.886-0.638-4.322-0.614c-2.531,0.043-3.522-1.27-4.259-3.503
			c-1.895-5.752-4.017-11.43-6.102-17.118c-0.343-0.937-0.34-2.269-1.917-2.257c-3.557,0.024-7.113,0.007-10.981,0.007
			c2.546,7.769,4.91,14.979,7.33,22.364c-2.472,0.378-4.609,0.732-6.755,1.025c-2.135,0.291-4.689,0.169-3.214,3.614
			C185.109,421.877,195.804,421.877,206.741,421.877z M377.938,421.823c0.219-2.973,0.226-3.022-2.169-3.356
			c-3.219-0.447-6.449-0.807-10.046-1.25c0-7.546,0-14.873,0-22.178c-3.888,0-7.362,0-11.222,0c0,7.49,0,14.824,0,22.229
			c-3.498,0.422-6.628,0.765-9.745,1.186c-2.653,0.359-2.647,0.399-2.099,3.37C354.416,421.823,366.181,421.823,377.938,421.823z
			 M310.713,417.02c0-7.281,0-14.624,0-22.038c-3.886,0-7.38,0-11.278,0c0,7.449,0,14.803,0,22.239
			c-2.393,0.387-4.409,0.74-6.435,1.033c-2.012,0.292-4.451,0.129-3.252,3.516c10.289,0,20.579,0,31.074,0
			c-0.089-0.994,0.115-2.329-0.279-2.54C317.619,417.673,314.169,418.202,310.713,417.02z M554.08,421.663
			c0-8.976,0-17.793,0-26.656c-2.005,0-3.792,0-5.509,0c-0.83,1.558,0.224,3.33-0.69,4.735c-2.312-1.228-2.114-4.797-5.197-4.851
			c-3.824-0.066-7.65-0.016-11.786-0.016c4.676,8.356,10.196,15.567,15.025,23.219C547.977,421.348,550.23,422.687,554.08,421.663z
			 M548.24,346.86c0,13.738,0,27.509,0,41.303c2.208,0,3.979,0,6.057,0c0-13.822,0-27.497,0-41.289
			c3.48-0.595,6.681-1.143,9.867-1.688c0.264-1.306,0.511-2.46-0.099-3.61c-8.773,0-17.472,0-26.306,0c0,1.236,0,2.282,0,3.583
			C541.153,345.71,544.484,346.25,548.24,346.86z M122.945,421.791c8.553,0,16.913,0,25.45,0c-0.051-0.972,0.187-2.326-0.18-2.517
			c-3.06-1.588-6.612-1.081-10.144-2.182c2.159-7.373,5.317-14.455,7.039-22.119c-1.986,0-3.79,0-5.811,0
			c-1.842,5.368-3.96,10.654-5.436,16.114c-1.252,4.635-3.491,7.4-8.573,7.264C123.148,418.293,122.132,419.336,122.945,421.791z
			 M483.763,421.761c9.586,0,18.307,0,27.677,0c-2.202-5.792-7.938-2.337-11.168-5.248c0-6.911,0-14.168,0-21.408
			c-2.146,0-4.006,0-6.118,0c0,7.478,0,14.73,0,21.462C491.081,419.406,485.548,415.951,483.763,421.761z M535.968,451.613
			c0,5.034-0.013,10.236,0.009,15.439c0.005,1.051-0.222,2.352,1.488,2.326c1.712-0.025,1.368-1.347,1.437-2.378
			c0.208-3.135-0.382-6.324,0.397-9.874c1.622,3.152,2.914,5.886,4.409,8.503c1.283,2.245,2.747,2.224,3.984-0.121
			c1.375-2.604,2.708-5.229,4.431-8.564c0,3.756-0.052,6.67,0.026,9.579c0.029,1.079-0.583,2.698,1.324,2.835
			c2.031,0.145,1.93-1.586,1.961-2.818c0.104-4.011,0.102-8.025,0.021-12.037c-0.024-1.189,0.705-2.852-1.232-3.338
			c-1.88-0.472-2.8,0.607-3.667,2.159c-1.698,3.037-2.565,6.511-5.056,9.625c-1.691-3.347-3.326-6.426-4.813-9.574
			C539.759,451.407,538.512,450.535,535.968,451.613z M510.844,459.231c-0.911-5.638-0.632-5.991,4.408-5.676
			c1.579,0.1,3.35,0.688,2.766-2.462c-2.137,0-4.294-0.05-6.448,0.017c-1.421,0.044-2.897-0.346-4.242,0.359
			c-0.688,3.264-0.658,14.687,0.075,17.804c0.894,0.059,1.841,0.161,2.79,0.172c2.062,0.026,4.123,0.02,6.185-0.003
			c0.852-0.01,1.78,0.005,1.879-1.195c0.112-1.351-0.764-1.548-1.845-1.631c-1.893-0.145-3.853,0.422-5.701-0.423
			c-0.401-1.37-0.568-2.641,0.248-4.041c1.383-0.063,2.824-0.091,4.257-0.209c0.99-0.081,1.577-0.696,1.454-1.704
			c-0.112-0.927-0.904-1.003-1.659-1.006C513.683,459.228,512.355,459.231,510.844,459.231z M394.816,469.53
			c3.438-0.053,5.699-1.649,6.342-4.316c0.708-2.938-1.008-4.534-3.289-5.801c-1.146-0.636-2.277-1.298-3.417-1.946
			c-0.978-0.557-1.355-1.393-1.007-2.457c0.353-1.075,1.313-1.48,2.295-1.452c0.812,0.024,1.668,0.333,2.403,0.712
			c1.13,0.584,1.9,0.306,2.335-0.787c0.433-1.087-0.457-1.475-1.21-1.896c-3.112-1.742-7.505-0.638-8.912,2.247
			c-1.56,3.193,0.198,6.492,4.324,8.033c1.573,0.587,3.705,0.836,2.99,3.226c-0.67,2.241-2.688,1.594-4.331,1.337
			c-1.189-0.186-2.795-1.771-3.387,0.161c-0.656,2.146,1.673,2.226,3.029,2.755C393.632,469.599,394.422,469.498,394.816,469.53z
			 M448.313,467.551c1.076,0.583,1.975,1.22,2.972,1.582c3.309,1.201,6.721,0.2,8.084-2.268c1.717-3.109,0.528-5.401-3.313-7.763
			c-1.515-0.931-4.598-1.542-3.648-4.1c1.024-2.757,3.45-1.116,5.353-0.552c0.313,0.093,0.679,0.014,1.004,0.014
			c0.344-2.489,0.328-2.532-1.112-3.154c-3.272-1.412-7.227-0.059-8.377,2.867c-1.341,3.409,0.031,5.906,4.107,7.536
			c1.619,0.648,4.147,0.907,3.361,3.374c-0.799,2.506-3.149,1.695-4.971,1.073C450.388,465.689,449.216,465.261,448.313,467.551z
			 M481.251,454.964c0,3.459-0.031,7.438,0.018,11.415c0.017,1.346-0.517,3.157,1.918,3.045c2.218-0.102,1.552-1.809,1.572-2.985
			c0.071-4.078,0.027-8.157,0.027-12.281c1.403-0.095,2.243-0.171,3.084-0.202c1.124-0.042,2.392-0.031,2.363-1.567
			c-0.032-1.709-1.487-1.251-2.479-1.275c-2.308-0.058-4.636-0.203-6.917,0.044c-1.59,0.173-4.368-1.245-4.545,1.263
			C476.09,455.272,479.271,453.147,481.251,454.964z M424.823,459c-2.392-2.559-2.021-7.64-7.455-7.867
			c0.349,0.974,0.491,1.545,0.746,2.06c2.33,4.699,5.954,8.926,5.224,14.728c-0.129,1.025,0.537,1.51,1.593,1.477
			c1.399-0.045,1.607-1.042,1.429-2.02c-0.691-3.784,1.373-6.753,2.796-9.91c0.904-2.009,2.755-3.591,2.945-6.423
			C426.959,451.548,427.342,456.411,424.823,459z"/>
		<path fill-rule="evenodd" clip-rule="evenodd" fill="#050505" d="M105.196,364.16c-13.789,0-27.29,0.262-40.775-0.077
			c-12.416-0.312-22.271-11.415-21.66-23.859c20.739,0,41.487,0,62.435,0C105.196,348.121,105.196,355.959,105.196,364.16z"/>
		<path fill-rule="evenodd" clip-rule="evenodd" fill="#0795C7" d="M105.386,369.536c0,7.442,0.003,14.607-0.005,21.772
			c-0.001,0.582-0.081,1.165-0.151,2.117c-3.902,0-7.639,0-11.375-0.001c-9.491-0.003-18.983,0.104-28.471-0.039
			c-12.892-0.196-23.016-10.831-22.676-23.849C63.44,369.536,84.181,369.536,105.386,369.536z"/>
		<path fill-rule="evenodd" clip-rule="evenodd" fill="#61C0ED" d="M42.776,401.644c20.814,0,41.458,0,62.356,0
			c0,7.621,0,15.107,0,22.646c-0.725,0.83-1.762,0.549-2.694,0.55c-12.418,0.015-24.838,0.098-37.255-0.03
			c-11.646-0.119-21.653-9.657-22.566-21.269C42.572,402.971,42.709,402.387,42.776,401.644z"/>
		<path fill-rule="evenodd" clip-rule="evenodd" fill="#050505" d="M476.733,388.157c-4.024,0-7.878,0-12.001,0
			c0.127-6.959,0.127-13.871-1.087-20.705c-3.355-18.901-21.534-27.637-38.579-18.489c-6.946,3.727-9.81,10.191-11.178,17.482
			c-1.325,7.068-1.505,14.233-1.151,21.639c-3.991,0-7.813,0-12.122,0c-0.422-14.865-0.45-29.782,13.106-39.826
			c12.021-8.905,25.921-10.132,39.693-5.285C474.882,350.529,477.836,368.354,476.733,388.157z"/>
		<path fill-rule="evenodd" clip-rule="evenodd" fill="#050505" d="M365.936,388.167c-4.052,0-7.531,0-11.264,0
			c0-13.601,0-27.058,0-41.016c-7.839,0.116-15.421-0.237-23.209,1.171c-0.549,3.995-1.09,7.934-1.623,11.817
			c-1.28,0.679-2.468,0.251-3.796,0.348c0-6.357,0-12.525,0-18.898c22.877,0,45.675,0,68.627,0c0,6.294,0,12.448,0,18.625
			c-1.268,0.473-2.422,0.409-3.817,0.025c-0.529-3.888-1.066-7.833-1.614-11.857c-7.758-1.4-15.396-0.99-23.304-1.138
			C365.936,360.968,365.936,374.429,365.936,388.167z"/>
		<path fill-rule="evenodd" clip-rule="evenodd" fill="#050505" d="M538.936,387.64c-9.548,3.104-15.095-0.863-19.579-8.889
			c-4.948-8.858-11.126-17.032-16.803-25.479c-0.507-0.753-0.738-1.8-2.236-2.255c0,6.283,0,12.407,0,18.531
			c0,6.082,0,12.165,0,18.38c-1.895,0.729-3.788,0.276-5.985,0.36c0-13.851,0-27.538,0-41.419c-3.477-0.588-6.675-1.129-9.784-1.655
			c-0.628-1.183-0.354-2.27-0.313-3.395c0.327-0.13,0.655-0.374,0.985-0.376c6.935-0.036,13.868-0.035,20.803-0.067
			c1.131-0.005,2.11,0.047,2.731,1.255c2.782,5.415,6.688,10.092,10.057,15.122c6.475,9.669,13.024,19.289,19.543,28.929
			C538.613,387.063,539.054,387.384,538.936,387.64z"/>
		<path fill-rule="evenodd" clip-rule="evenodd" fill="#050505" d="M223.903,388.22c-4.28,0-8.036,0-11.78,0
			c-2.537-20.653,4.757-37.812,21.766-44.386c9.739-3.764,19.381-3.207,29.252-2.785c4.625,0.198,8.98,1.676,13.42,2.77
			c1.25,0.309,1.86,0.856,1.847,2.217c-0.049,4.975-0.019,9.951-0.019,15.045c-1.069,0.466-2.215,0.339-3.551-0.026
			c-0.362-1.856-1.037-3.756-1.039-5.657c-0.005-3.696-2.095-5.331-5.21-6.48c-8.074-2.981-16.317-3.914-24.75-2.1
			c-11.052,2.377-17.863,11-19.352,24.079C223.842,376.567,223.605,382.25,223.903,388.22z"/>
		<path fill-rule="evenodd" clip-rule="evenodd" fill="#050505" d="M160.574,350.842c-4.275,12.462-8.55,24.923-12.816,37.36
			c-2.051,0-3.859,0-6.029,0c5.556-15.876,11.039-31.541,16.56-47.32c3.599,0,7.228,0,10.968,0
			c5.733,15.738,11.451,31.434,17.167,47.124c-0.341,0.132-0.447,0.204-0.557,0.211c-10.967,0.703-11.003,0.716-14.659-9.514
			c-3.307-9.255-6.523-18.542-9.78-27.814C161.144,350.873,160.859,350.858,160.574,350.842z"/>
		<path fill-rule="evenodd" clip-rule="evenodd" fill="#050505" d="M401.781,395.02c3.861,0,7.607,0,11.776,0
			c1.328,7.753,3.343,15.384,10.761,19.944c5.672,3.486,11.974,3.778,18.357,3.276c11.953-0.939,17.792-7.288,21.275-23.032
			c1.835-0.707,3.791-0.23,5.7-0.314c1.927-0.085,3.86-0.019,5.815-0.019c-1.639,13.499-10.318,23.424-23.544,26.815
			c-8.757,2.246-17.638,2.318-26.374,0.004C411.916,418.084,404.199,408.986,401.781,395.02z"/>
		<path fill-rule="evenodd" clip-rule="evenodd" fill="#050505" d="M310.878,388.211c-4.045,0-7.539,0-11.357,0
			c0-13.784,0-27.472,0-41.329c-3.465-0.598-6.649-1.148-9.927-1.715c0-1.25,0-2.314,0-3.582c10.29,0,20.562,0,30.86,0
			c0.644,1.068,0.355,2.125,0.202,3.534c-3.116,0.551-6.297,1.114-9.777,1.729C310.878,360.482,310.878,374.167,310.878,388.211z"/>
		<path fill-rule="evenodd" clip-rule="evenodd" fill="#050505" d="M279.938,401.648c0,5.827,0,11.655,0,17.799
			c-15.696,3.691-30.844,6.062-46.021,0.593c-11.313-4.075-17.889-12.2-20.871-24.936c3.854,0,7.659,0,11.729,0
			c0.459,1.591,0.957,3.312,1.451,5.034c2.895,10.103,9.509,16.307,19.858,17.922c8.303,1.297,16.472,0.266,24.245-3.256
			c2.394-1.084,3.984-2.403,4.15-5.306c0.152-2.65,0.872-5.268,1.341-7.899C277.202,400.961,278.574,400.927,279.938,401.648z"/>
		<path fill-rule="evenodd" clip-rule="evenodd" fill="#050505" d="M206.741,421.877c-10.938,0-21.632,0-32.44,0
			c-1.475-3.445,1.079-3.323,3.214-3.614c2.146-0.293,4.284-0.647,6.755-1.025c-2.42-7.385-4.784-14.596-7.33-22.364
			c3.868,0,7.425,0.018,10.981-0.007c1.577-0.012,1.573,1.32,1.917,2.257c2.084,5.688,4.207,11.366,6.102,17.118
			c0.736,2.233,1.728,3.546,4.259,3.503c1.436-0.023,2.873,0.513,4.322,0.614C206.733,418.514,207.561,419.497,206.741,421.877z"/>
		<path fill-rule="evenodd" clip-rule="evenodd" fill="#050505" d="M377.938,421.823c-11.757,0-23.521,0-35.28,0
			c-0.549-2.971-0.555-3.011,2.099-3.37c3.117-0.421,6.247-0.764,9.745-1.186c0-7.404,0-14.738,0-22.229c3.859,0,7.334,0,11.222,0
			c0,7.305,0,14.632,0,22.178c3.597,0.443,6.827,0.803,10.046,1.25C378.163,418.8,378.156,418.85,377.938,421.823z"/>
		<path fill-rule="evenodd" clip-rule="evenodd" fill="#050505" d="M310.713,417.02c3.456,1.182,6.906,0.653,9.83,2.21
			c0.395,0.211,0.19,1.546,0.279,2.54c-10.495,0-20.785,0-31.074,0c-1.199-3.387,1.24-3.224,3.252-3.516
			c2.025-0.293,4.042-0.646,6.435-1.033c0-7.437,0-14.79,0-22.239c3.898,0,7.393,0,11.278,0
			C310.713,402.396,310.713,409.739,310.713,417.02z"/>
		<path fill-rule="evenodd" clip-rule="evenodd" fill="#050505" d="M554.08,421.663c-3.85,1.024-6.104-0.314-8.157-3.568
			c-4.829-7.651-10.35-14.862-15.025-23.219c4.136,0,7.962-0.051,11.786,0.016c3.083,0.054,2.886,3.623,5.197,4.851
			c0.914-1.405-0.14-3.178,0.69-4.735c1.717,0,3.504,0,5.509,0C554.08,403.87,554.08,412.687,554.08,421.663z"/>
		<path fill-rule="evenodd" clip-rule="evenodd" fill="#050505" d="M548.24,346.86c-3.756-0.609-7.087-1.15-10.48-1.701
			c0-1.3,0-2.347,0-3.583c8.834,0,17.532,0,26.306,0c0.609,1.15,0.362,2.304,0.099,3.61c-3.187,0.545-6.387,1.093-9.867,1.688
			c0,13.792,0,27.467,0,41.289c-2.078,0-3.849,0-6.057,0C548.24,374.369,548.24,360.598,548.24,346.86z"/>
		<path fill-rule="evenodd" clip-rule="evenodd" fill="#050505" d="M122.945,421.791c-0.813-2.454,0.204-3.497,2.346-3.439
			c5.082,0.137,7.321-2.629,8.573-7.264c1.475-5.46,3.594-10.746,5.436-16.114c2.021,0,3.824,0,5.811,0
			c-1.722,7.664-4.88,14.746-7.039,22.119c3.532,1.101,7.084,0.594,10.144,2.182c0.367,0.19,0.129,1.545,0.18,2.517
			C139.858,421.791,131.498,421.791,122.945,421.791z"/>
		<path fill-rule="evenodd" clip-rule="evenodd" fill="#050505" d="M483.763,421.761c1.785-5.811,7.318-2.355,10.391-5.194
			c0-6.731,0-13.984,0-21.462c2.112,0,3.972,0,6.118,0c0,7.24,0,14.497,0,21.408c3.229,2.911,8.966-0.544,11.168,5.248
			C502.069,421.761,493.349,421.761,483.763,421.761z"/>
		<path fill-rule="evenodd" clip-rule="evenodd" fill="#ACACAC" d="M535.968,451.613c2.544-1.078,3.791-0.206,4.72,1.762
			c1.486,3.148,3.121,6.228,4.813,9.574c2.49-3.114,3.357-6.588,5.056-9.625c0.867-1.552,1.787-2.631,3.667-2.159
			c1.938,0.486,1.208,2.148,1.232,3.338c0.081,4.012,0.084,8.026-0.021,12.037c-0.031,1.232,0.07,2.963-1.961,2.818
			c-1.907-0.137-1.295-1.756-1.324-2.835c-0.078-2.909-0.026-5.823-0.026-9.579c-1.723,3.336-3.056,5.961-4.431,8.564
			c-1.237,2.345-2.701,2.366-3.984,0.121c-1.495-2.617-2.787-5.351-4.409-8.503c-0.779,3.55-0.189,6.739-0.397,9.874
			c-0.068,1.031,0.275,2.353-1.437,2.378c-1.71,0.025-1.483-1.275-1.488-2.326C535.955,461.849,535.968,456.647,535.968,451.613z"/>
		<path fill-rule="evenodd" clip-rule="evenodd" fill="#ACACAC" d="M510.844,459.231c1.512,0,2.839-0.003,4.166,0.002
			c0.755,0.003,1.547,0.079,1.659,1.006c0.123,1.008-0.464,1.623-1.454,1.704c-1.433,0.118-2.874,0.146-4.257,0.209
			c-0.816,1.4-0.649,2.671-0.248,4.041c1.849,0.845,3.809,0.278,5.701,0.423c1.081,0.083,1.957,0.28,1.845,1.631
			c-0.099,1.2-1.027,1.186-1.879,1.195c-2.062,0.022-4.123,0.029-6.185,0.003c-0.949-0.011-1.896-0.113-2.79-0.172
			c-0.733-3.117-0.763-14.54-0.075-17.804c1.345-0.705,2.821-0.315,4.242-0.359c2.154-0.066,4.312-0.017,6.448-0.017
			c0.584,3.149-1.187,2.562-2.766,2.462C510.212,453.24,509.933,453.593,510.844,459.231z"/>
		<path fill-rule="evenodd" clip-rule="evenodd" fill="#ACACAC" d="M394.816,469.53c-0.395-0.032-1.185,0.069-1.834-0.185
			c-1.356-0.529-3.686-0.609-3.029-2.755c0.592-1.932,2.197-0.347,3.387-0.161c1.643,0.257,3.661,0.904,4.331-1.337
			c0.715-2.39-1.417-2.639-2.99-3.226c-4.126-1.541-5.884-4.84-4.324-8.033c1.407-2.885,5.8-3.989,8.912-2.247
			c0.753,0.421,1.643,0.809,1.21,1.896c-0.435,1.093-1.205,1.371-2.335,0.787c-0.735-0.379-1.592-0.688-2.403-0.712
			c-0.981-0.028-1.942,0.377-2.295,1.452c-0.349,1.064,0.029,1.9,1.007,2.457c1.14,0.648,2.271,1.311,3.417,1.946
			c2.281,1.267,3.997,2.862,3.289,5.801C400.516,467.88,398.255,469.477,394.816,469.53z"/>
		<path fill-rule="evenodd" clip-rule="evenodd" fill="#ACACAC" d="M448.313,467.551c0.902-2.29,2.074-1.862,3.459-1.39
			c1.821,0.622,4.172,1.433,4.971-1.073c0.786-2.467-1.742-2.726-3.361-3.374c-4.076-1.63-5.448-4.127-4.107-7.536
			c1.15-2.926,5.104-4.279,8.377-2.867c1.44,0.622,1.456,0.665,1.112,3.154c-0.325,0-0.69,0.079-1.004-0.014
			c-1.902-0.564-4.328-2.205-5.353,0.552c-0.949,2.558,2.134,3.169,3.648,4.1c3.842,2.361,5.03,4.653,3.313,7.763
			c-1.363,2.468-4.775,3.469-8.084,2.268C450.288,468.771,449.39,468.134,448.313,467.551z"/>
		<path fill-rule="evenodd" clip-rule="evenodd" fill="#ACACAC" d="M481.251,454.964c-1.979-1.817-5.161,0.308-4.959-2.545
			c0.177-2.508,2.955-1.09,4.545-1.263c2.281-0.247,4.609-0.102,6.917-0.044c0.992,0.024,2.447-0.434,2.479,1.275
			c0.028,1.536-1.239,1.525-2.363,1.567c-0.841,0.031-1.681,0.107-3.084,0.202c0,4.124,0.044,8.203-0.027,12.281
			c-0.021,1.177,0.646,2.884-1.572,2.985c-2.435,0.112-1.901-1.699-1.918-3.045C481.22,462.402,481.251,458.423,481.251,454.964z"/>
		<path fill-rule="evenodd" clip-rule="evenodd" fill="#ACACAC" d="M424.823,459c2.519-2.59,2.136-7.452,7.277-7.956
			c-0.19,2.832-2.041,4.414-2.945,6.423c-1.423,3.157-3.487,6.126-2.796,9.91c0.179,0.978-0.029,1.975-1.429,2.02
			c-1.056,0.033-1.722-0.451-1.593-1.477c0.73-5.802-2.894-10.028-5.224-14.728c-0.255-0.515-0.397-1.086-0.746-2.06
			C422.803,451.361,422.432,456.442,424.823,459z"/>
		<path fill-rule="evenodd" clip-rule="evenodd" fill="#ACACAC" d="M279.938,401.648c-1.364-0.721-2.736-0.687-4.116-0.049
			c-0.314-1.988,1.112-1.719,2.287-1.75C279.326,399.817,280.335,400.024,279.938,401.648z"/>
	</g>
</g>
</svg>
